<svg width="120" height="120" viewBox="0 0 120 120" fill="none" xmlns="http://www.w3.org/2000/svg">
<path d="M92.7928 33.8872C92.7928 34.5522 92.2724 35.0914 91.6339 35.0914H83.9017V21.3467H91.6339C92.2725 21.3467 92.7928 21.8873 92.7928 22.5508V33.8872ZM106.748 53.9738L115.216 45.1744V12.948L102.755 -7.62939e-06H61.3813V35.0909H53.1619V-7.62939e-06H30.7204C30.7191 17.4714 30.7636 56.8815 30.7455 62.8144C30.7442 63.316 30.3545 63.7164 29.8718 63.7164C28.0423 63.7164 23.987 63.7151 23.6531 63.7151C23.0271 63.7151 22.5193 63.1889 22.5193 62.5369V0.000770569H0V71.9591L12.4625 84.9071H30.7389V106.984L43.5879 120H70.9668L83.901 106.56V82.8138H61.4762V96.693C61.4762 97.8625 60.565 98.8093 59.4409 98.8093H55.2938C54.1683 98.8093 53.2585 97.8625 53.2585 96.6944V58.5533C53.2585 57.3853 54.1683 56.4384 55.2938 56.4384H61.3819V70.806H83.9011V56.1609H84.7776L96.6904 84.9063H120L106.748 53.9738Z" fill="#FFB81C"/>
<path d="M65.0414 3.8045V67.0018H80.2361V52.3547H87.1827L99.1316 81.1014H114.389L102.376 53.1341L111.553 43.5993V14.5258L101.237 3.80526H65.0409L65.0414 3.8045ZM3.66015 3.80598V70.382L13.9775 81.1026H34.3987V105.465L45.1776 116.194H69.4484L80.2358 104.984V86.6189H65.1357V97.6039C65.1357 100.371 62.9782 102.613 60.3154 102.613H54.4139C51.7512 102.613 49.5931 100.371 49.5931 97.6039V57.6427C49.5931 54.8759 51.7511 52.634 54.4124 52.634H60.7202V38.8977H49.4971V3.80598H34.3984V62.6693C34.3984 65.3494 32.3072 67.5224 29.7279 67.5224H23.6696C21.011 67.5224 18.8546 65.2831 18.8546 62.5207V3.80824H3.65991L3.66015 3.80598ZM80.2348 17.5418H91.6304C94.2876 17.5418 96.4512 19.7884 96.4512 22.551V33.8872C96.4512 36.6498 94.2877 38.8975 91.6304 38.8975H80.2348V17.5418Z" fill="#003DA5"/>
</svg>
